<?xml version="1.0" standalone="no"?>
<!DOCTYPE svg PUBLIC "-//W3C//DTD SVG 20010904//EN"
 "http://www.w3.org/TR/2001/REC-SVG-20010904/DTD/svg10.dtd">
<svg version="1.0" xmlns="http://www.w3.org/2000/svg"
 width="834.000000pt" height="834.000000pt" viewBox="0 0 834.000000 834.000000"
 preserveAspectRatio="xMidYMid meet">
<metadata>
Created by potrace 1.11, written by Peter Selinger 2001-2013
</metadata>
<g transform="translate(0.000000,834.000000) scale(0.100000,-0.100000)"
fill="#000000" stroke="none">
<path d="M680 7677 l-84 -257 -270 0 -270 0 45 -32 c24 -18 46 -35 49 -38 3
-3 21 -17 40 -30 19 -14 40 -28 45 -32 6 -5 62 -47 125 -95 63 -47 119 -89
123 -93 9 -8 -6 -63 -97 -345 -30 -93 -54 -171 -52 -172 3 -4 247 169 364 258
l63 48 190 -137 c104 -75 202 -145 218 -155 l29 -18 -68 213 c-38 117 -75 232
-83 256 l-15 42 62 48 c33 26 130 99 214 162 l154 115 -266 3 -265 2 -84 257
-83 257 -84 -257z"/>
<path d="M3 3320 l0 -2910 41 -1 c23 0 394 0 826 -1 l785 0 1 128 1 129 281 3
282 2 0 2018 0 2017 2253 0 c2447 -1 2287 3 2374 -57 55 -37 89 -83 113 -152
20 -54 20 -94 20 -1990 l0 -1935 678 1 679 0 -3 2031 c-1 1118 -4 2044 -7
2058 -20 104 -33 155 -58 232 -129 390 -407 682 -809 851 -47 19 -214 64 -270
71 -25 3 -58 9 -75 12 -16 2 -1251 5 -2742 5 l-2713 0 -1 32 c0 17 -1 106 -1
199 l-1 167 -827 0 -827 0 0 -2910z"/>
</g>
</svg>
