<?xml version="1.0" encoding="UTF-8"?>
<!-- Generator: Adobe Illustrator 19.2.1, SVG Export Plug-In . SVG Version: 6.00 Build 0)  -->
<svg version="1.1" id="Layer_1" xmlns="http://www.w3.org/2000/svg" xmlns:xlink="http://www.w3.org/1999/xlink" x="0px" y="0px" viewBox="0 0 304 93" style="enable-background:new 0 0 304 93;" xml:space="preserve">
<style type="text/css">
	.st0{fill:#00A1E4;}
</style>
<path id="XMLID_383_" class="st0" d="M167.4,14.4c-18.3,0-33.1,14.8-33.1,33.1c0,18.3,14.8,33.1,33.1,33.1c5,0,9.7-1.1,14-3.1  l2.2,0.9l16.9,7V47.5C200.5,29.2,185.7,14.4,167.4,14.4z M192.4,73h-8.3v-6.4c-4.4,4-10.2,6.4-16.6,6.4c-13.8,0-25-11.2-25-25  c0-13.8,11.2-25,25-25c13.8,0,25,11.2,25,25V73z"/>
<path id="XMLID_393_" class="st0" d="M29.7,18.5c-16.2,0-29.3,13.1-29.3,29.3s13.1,29.3,29.3,29.3c7.5,0,14.3-2.8,19.5-7.5v7.5H59  V47.8C59,31.6,45.9,18.5,29.7,18.5z M29.7,67.3c-10.8,0-19.5-8.8-19.5-19.5s8.8-19.5,19.5-19.5c10.8,0,19.5,8.8,19.5,19.5  S40.5,67.3,29.7,67.3z"/>
<rect id="XMLID_392_" x="66.8" y="8.8" class="st0" width="9.8" height="68.3"/>
<rect id="XMLID_391_" x="294.2" y="8.8" class="st0" width="9.8" height="68.3"/>
<path id="XMLID_390_" class="st0" d="M113.7,67.3c-10.8,0-19.5-8.8-19.5-19.5s8.8-19.5,19.5-19.5c5.4,0,10.3,2.2,13.8,5.7l6.9-6.9  c-5.3-5.3-12.6-8.6-20.7-8.6c-16.2,0-29.3,13.1-29.3,29.3s13.1,29.3,29.3,29.3c8.1,0,15.4-3.3,20.7-8.6l-6.9-6.9  C123.9,65.1,119,67.3,113.7,67.3z"/>
<polygon id="XMLID_389_" class="st0" points="218.1,18.5 218.1,8.8 208.3,8.8 208.3,77.1 218.1,77.1 218.1,28.3 227.9,28.3   227.9,18.5 "/>
<path id="XMLID_386_" class="st0" d="M271.9,60.5c-3.6,4.2-8.9,6.8-14.8,6.8c-9.1,0-16.7-6.2-18.9-14.6H286c0.3-1.6,0.4-3.2,0.4-4.9  c0-16.2-13.1-29.3-29.3-29.3s-29.3,13.1-29.3,29.3s13.1,29.3,29.3,29.3c11.6,0,21.7-6.8,26.4-16.6H271.9z M257.1,28.3  c9.1,0,16.7,6.2,18.9,14.6h-37.8C240.4,34.5,248.1,28.3,257.1,28.3z"/>
<path id="XMLID_374_" class="st0" d="M167.4,31c-9.4,0-17,7.6-17,17c0,9.4,7.6,17,17,17c9.4,0,17-7.6,17-17  C184.4,38.7,176.8,31,167.4,31z"/>
</svg>